<?xml version="1.0" encoding="utf-8"?>
<!-- Generator: Adobe Illustrator 28.0.0, SVG Export Plug-In . SVG Version: 6.00 Build 0)  -->
<svg version="1.1" id="Слой_1" xmlns="http://www.w3.org/2000/svg" xmlns:xlink="http://www.w3.org/1999/xlink" x="0px" y="0px"
	 viewBox="0 0 1000 1000" style="enable-background:new 0 0 1000 1000;" xml:space="preserve">
<style type="text/css">
	.st0{fill:#FFFFFF;}
	.st1{fill:#FF5A00;}
</style>
<g>
	<path class="st0" d="M268.1,472c0-1.5,0-2.7,0.1-3.5c0.1-0.8,0.4-1.6,1-2.6c0.9-1.8,3.5-2.7,7.8-2.7c4.7,0,7.4,1.2,8.3,3.7
		c0.3,1.1,0.5,2.9,0.5,5.2v55.6c0,1.6-0.1,2.8-0.2,3.5c-0.1,0.7-0.4,1.6-0.9,2.6c-0.9,1.8-3.5,2.7-7.8,2.7c-4.7,0-7.4-1.3-8.2-3.8
		c-0.4-1.1-0.6-2.8-0.6-5.1V472z"/>
	<path class="st0" d="M341.1,466.2c0.6-1.2,1.6-2,2.9-2.4c1.3-0.4,2.8-0.6,4.8-0.6c1.9,0,3.4,0.2,4.6,0.5c1.2,0.3,2,0.7,2.6,1.2
		c0.6,0.5,1,1.2,1.2,2.1c0.4,1.1,0.6,2.8,0.6,5.1v55.5c0,1.6,0,2.8-0.1,3.5c-0.1,0.7-0.4,1.6-1,2.6c-0.9,1.8-3.5,2.7-7.8,2.7
		c-2.6,0-4.4-0.2-5.4-0.6s-1.8-1-2.5-1.9c-15-20-24.9-33.1-29.6-39.2v32.9c0,1.6-0.1,2.8-0.1,3.5c-0.1,0.7-0.4,1.6-1,2.6
		c-0.9,1.8-3.5,2.7-7.8,2.7c-4.1,0-6.7-0.9-7.6-2.7c-0.5-1-0.9-1.9-1-2.7c-0.1-0.8-0.1-2-0.1-3.5v-55.8c0-2.5,0.3-4.4,1-5.5
		c0.6-1.2,1.6-2,2.8-2.4c1.3-0.4,2.9-0.6,4.9-0.6s3.6,0.2,4.8,0.6c1.2,0.4,2,0.8,2.4,1.2c0.3,0.2,1,1.1,2.3,2.6
		c14.1,19.1,23.5,31.8,28.2,37.9v-33.8C340.2,469.3,340.5,467.4,341.1,466.2z"/>
	<path class="st0" d="M457.5,463.2c1.5,0,2.7,0,3.5,0.1c0.8,0.1,1.6,0.4,2.6,0.9c1,0.5,1.7,1.4,2.1,2.7c0.4,1.3,0.6,3,0.6,5.1
		c0,2.1-0.2,3.8-0.6,5.1c-0.4,1.3-1.1,2.1-2.1,2.6s-1.9,0.8-2.6,0.9c-0.8,0.1-2,0.1-3.6,0.1h-30.6V491h19.7c1.6,0,2.8,0,3.6,0.1
		c0.8,0.1,1.6,0.4,2.6,1c1.7,1,2.6,3.6,2.6,7.9c0,4.7-1.3,7.4-3.8,8.3c-1.1,0.3-2.8,0.5-5.1,0.5h-19.6v18.9c0,1.6-0.1,2.8-0.2,3.5
		c-0.1,0.7-0.4,1.6-0.9,2.6c-0.9,1.8-3.5,2.7-7.8,2.7c-4.7,0-7.4-1.3-8.2-3.8c-0.4-1.1-0.6-2.8-0.6-5.1V472c0-3.4,0.6-5.7,1.9-7
		c1.3-1.2,3.7-1.8,7.2-1.8H457.5z"/>
	<path class="st0" d="M507.1,462.3c9.9,0,18.4,3.6,25.7,10.7c7.3,7.1,10.9,16,10.9,26.5c0,10.6-3.5,19.6-10.4,27
		c-6.9,7.4-15.5,11.2-25.6,11.2c-10.1,0-18.8-3.7-25.9-11c-7.1-7.3-10.6-16.1-10.6-26.2c0-5.5,1-10.7,3-15.5c2-4.8,4.7-8.9,8-12.2
		c3.3-3.3,7.2-5.8,11.5-7.7C498.1,463.2,502.5,462.3,507.1,462.3z M488.9,500c0,5.9,1.9,10.8,5.8,14.5c3.8,3.7,8.1,5.5,12.8,5.5
		c4.7,0,9-1.8,12.8-5.4c3.8-3.6,5.7-8.4,5.7-14.5c0-6.1-1.9-10.9-5.8-14.6c-3.8-3.7-8.1-5.5-12.8-5.5c-4.7,0-9,1.9-12.8,5.5
		C490.8,489.2,488.9,494.1,488.9,500z"/>
	<path class="st0" d="M628.1,466c0.5,1,0.8,1.9,0.9,2.7c0.1,0.8,0.2,2,0.2,3.5v55.5c0,4.6-1.3,7.3-3.8,8.1c-1.3,0.4-2.9,0.6-4.8,0.6
		c-1.9,0-3.5-0.2-4.6-0.5c-1.1-0.3-2-0.7-2.6-1.2c-0.6-0.5-1.1-1.1-1.4-2c-0.3-1.1-0.5-2.9-0.5-5.2V494c-1.7,2.1-4.1,5.4-7.3,9.9
		s-5.2,7.3-6.1,8.4c-0.9,1.1-1.5,1.9-1.8,2.4c-0.3,0.4-1.1,1-2.4,1.8c-1.3,0.8-2.7,1.1-4.2,1.1s-2.9-0.4-4.1-1.1
		c-1.2-0.7-2.1-1.4-2.6-2l-0.8-1.1c-1.3-1.7-4-5.2-7.9-10.6c-3.9-5.4-6.1-8.4-6.4-8.8v33.7c0,1.5-0.1,2.7-0.1,3.4
		c-0.1,0.8-0.4,1.6-1,2.6c-1,1.8-3.6,2.7-7.8,2.7c-4.1,0-6.6-0.9-7.6-2.7c-0.5-0.9-0.9-1.8-1-2.6c-0.1-0.8-0.1-2-0.1-3.6V472
		c0-1.5,0-2.7,0.1-3.5c0.1-0.8,0.4-1.6,1-2.6c1-1.7,3.6-2.6,7.8-2.6c1.8,0,3.4,0.2,4.6,0.7c1.3,0.4,2.2,0.9,2.6,1.3l0.6,0.6
		l22.7,29.8c11.3-15,18.9-24.9,22.7-29.7c1.1-1.8,3.8-2.7,8.1-2.7C624.6,463.3,627.2,464.2,628.1,466z"/>
	<path class="st0" d="M671.6,462.3c9.9,0,18.4,3.6,25.7,10.7c7.3,7.1,10.9,16,10.9,26.5c0,10.6-3.5,19.6-10.4,27
		c-6.9,7.4-15.5,11.2-25.6,11.2c-10.1,0-18.8-3.7-25.8-11c-7.1-7.3-10.7-16.1-10.7-26.2c0-5.5,1-10.7,3-15.5c2-4.8,4.7-8.9,8-12.2
		c3.3-3.3,7.2-5.8,11.5-7.7C662.6,463.2,667,462.3,671.6,462.3z M653.4,500c0,5.9,1.9,10.8,5.8,14.5c3.8,3.7,8.1,5.5,12.8,5.5
		c4.7,0,9-1.8,12.8-5.4c3.8-3.6,5.7-8.4,5.7-14.5c0-6.1-1.9-10.9-5.8-14.6c-3.8-3.7-8.1-5.5-12.8-5.5c-4.7,0-9,1.9-12.8,5.5
		C655.3,489.2,653.4,494.1,653.4,500z"/>
	<path class="st1" d="M730.2,520c1.1,1.1,1.7,3.5,1.7,7v0.4c0,1.6,0,2.8-0.2,3.6c-0.1,0.8-0.5,1.7-1,2.8c-1,1.9-3.5,2.9-7.5,2.9
		c-4,0-6.7-0.6-8-1.9c-1.3-1.3-2-3.7-2-7.2v-0.4c0-1.5,0-2.7,0.2-3.5c0.1-0.8,0.4-1.7,0.9-2.7c1-2,3.5-3,7.6-3
		C725.9,517.9,728.7,518.6,730.2,520z"/>
	<g>
		<path class="st0" d="M395.1,507.6h-23.8c-3.7,0-6-1.1-6.7-3.4c-0.3-1.2-0.5-2.7-0.5-4.6c0-1.9,0.2-3.4,0.6-4.5
			c0.4-1.1,1-1.9,1.9-2.4c1.2-0.6,2.8-0.9,4.8-0.9h23.8c3.7,0,5.9,1.1,6.6,3.3c0.4,1.2,0.6,2.7,0.6,4.6c0,1.9-0.2,3.4-0.5,4.5
			c-0.4,1.2-1,2-1.8,2.5C398.9,507.3,397.3,507.6,395.1,507.6z"/>
	</g>
</g>
</svg>
